<svg id="visual" viewBox="0 0 1300 1000" width="1300" height="1000" xmlns="http://www.w3.org/2000/svg" xmlns:xlink="http://www.w3.org/1999/xlink" version="1.1"><rect x="0" y="0" width="1300" height="1000" fill="#f4f1f1"></rect><defs><linearGradient id="grad1_0" x1="23.1%" y1="100%" x2="100%" y2="0%"><stop offset="24%" stop-color="#f4f1f1" stop-opacity="1"></stop><stop offset="76%" stop-color="#f4f1f1" stop-opacity="1"></stop></linearGradient></defs><defs><linearGradient id="grad2_0" x1="0%" y1="100%" x2="76.9%" y2="0%"><stop offset="24%" stop-color="#f4f1f1" stop-opacity="1"></stop><stop offset="76%" stop-color="#f4f1f1" stop-opacity="1"></stop></linearGradient></defs><g transform="translate(1300, 1000)"><path d="M-451 0C-438.9 -45.3 -426.8 -90.6 -411.8 -133.8C-396.8 -177 -378.8 -218.2 -355.2 -258C-331.5 -297.9 -302.2 -336.5 -265.1 -364.9C-228.1 -393.3 -183.3 -411.5 -137.8 -424.2C-92.4 -436.8 -46.2 -443.9 0 -451L0 0Z" fill="#659388"></path></g><g transform="translate(0, 0)"><path d="M451 0C412.7 34.9 374.4 69.8 365.2 118.7C356 167.5 376 230.3 349.5 253.9C323 277.5 250.1 261.9 211.6 291.2C173.1 320.6 168.9 394.8 139.4 429C109.8 463.1 54.9 457.1 0 451L0 0Z" fill="#659388"></path></g></svg>